<svg xmlns="http://www.w3.org/2000/svg" viewBox="0 0 64 64">
  <rect width="64" height="64" rx="12" fill="#0B1B34"/>
  <rect x="22" y="8" width="20" height="6" rx="1.5" fill="#1E293B"/>
  <rect x="20" y="13" width="24" height="7" rx="1" fill="#CBD5E1"/>
  <path d="M22 20 h20 v3 h-20 z" fill="#E2E8F0" opacity="0.85"/>
  <path d="M20 23 h24 a2 2 0 0 1 2 2 v27 a4 4 0 0 1 -4 4 h-20 a4 4 0 0 1 -4 -4 v-27 a2 2 0 0 1 2 -2 z"
        fill="#F1F5F9" opacity="0.15" stroke="#94A3B8" stroke-width="1"/>
  <rect x="22" y="34" width="20" height="16" rx="1.5" fill="#0B1B34"/>
  <text x="32" y="45" text-anchor="middle" font-family="Space Grotesk, Inter, sans-serif" font-weight="800" font-size="9" fill="#FFFFFF" letter-spacing="0.5">BH</text>
  <line x1="24" y1="47.5" x2="40" y2="47.5" stroke="#3B82F6" stroke-width="0.9"/>
  <rect x="23" y="26" width="2" height="24" rx="1" fill="#FFFFFF" opacity="0.6"/>
</svg>
